<?xml version="1.0" standalone="no"?>
<!DOCTYPE svg PUBLIC "-//W3C//DTD SVG 20010904//EN"
 "http://www.w3.org/TR/2001/REC-SVG-20010904/DTD/svg10.dtd">
<svg version="1.0" xmlns="http://www.w3.org/2000/svg"
 width="1280.000000pt" height="1141.000000pt" viewBox="0 0 1280.000000 1141.000000"
 preserveAspectRatio="xMidYMid meet">
<metadata>
Created by potrace 1.15, written by Peter Selinger 2001-2017
</metadata>
<g transform="translate(0.000000,1141.000000) scale(0.100000,-0.100000)"
fill="#000000" stroke="none">
<path d="M11990 11399 c-272 -4 -848 -12 -1280 -18 -432 -6 -1093 -16 -1470
-21 -377 -5 -1016 -14 -1420 -20 -812 -11 -1784 -25 -2805 -40 -368 -5 -985
-14 -1370 -20 -385 -6 -988 -15 -1340 -20 -352 -5 -1011 -15 -1465 -21 -454
-6 -827 -14 -830 -16 -3 -3 -6 -2521 -8 -5598 l-3 -5593 2373 -6 c5964 -16
10202 -25 10206 -22 4 4 6 107 22 1161 10 605 28 1556 50 2665 5 272 14 726
20 1008 5 281 15 743 20 1025 6 281 15 735 20 1007 5 272 14 729 20 1015 6
286 15 743 20 1015 5 272 15 734 20 1025 6 292 15 733 20 980 5 248 10 462 10
478 l0 27 -157 -2 c-87 -1 -381 -5 -653 -9z m-5155 -1599 c22 -7 82 -30 132
-52 51 -21 125 -46 164 -54 141 -29 247 -103 558 -390 243 -224 306 -280 353
-311 47 -32 97 -106 155 -230 95 -205 121 -305 130 -503 5 -137 -10 -1106 -23
-1436 l-6 -151 78 -6 c58 -4 82 -10 91 -23 34 -47 1 -637 -53 -959 -18 -105
-43 -164 -114 -270 -77 -114 -105 -182 -150 -370 -90 -376 -119 -460 -217
-630 -26 -44 -65 -104 -88 -134 -22 -29 -47 -63 -55 -74 -13 -18 -16 -84 -18
-412 -3 -268 0 -404 7 -432 10 -37 19 -46 72 -74 79 -43 145 -102 157 -142 6
-17 13 -84 15 -147 6 -130 16 -165 81 -276 28 -48 50 -101 57 -137 20 -98 72
-138 199 -152 30 -3 93 -22 140 -41 47 -19 144 -58 215 -86 270 -104 783 -343
975 -453 82 -46 215 -100 445 -180 267 -93 372 -137 560 -234 94 -48 198 -98
232 -111 141 -51 402 -230 560 -385 91 -89 94 -94 172 -256 86 -179 125 -283
116 -307 -5 -14 -347 -14 -3313 -7 -5668 13 -7646 21 -7669 29 -34 12 -29 49
17 139 103 201 256 379 432 501 221 153 534 328 978 548 557 276 912 439 1040
480 52 17 205 74 340 128 135 53 317 123 405 156 88 32 192 75 230 94 l70 36
22 69 c11 39 46 173 76 299 62 255 100 349 166 409 22 20 59 41 83 47 70 17
106 37 121 67 26 51 37 164 47 487 l10 319 -38 45 c-310 373 -320 392 -382
772 -31 184 -55 263 -117 380 -87 163 -109 211 -132 283 -41 133 -71 443 -74
751 -2 239 16 276 133 276 l50 0 0 538 c0 880 27 1281 101 1476 42 114 170
308 305 465 304 353 798 612 1226 641 189 13 884 6 933 -10z"/>
</g>
</svg>
